<?xml version="1.0" encoding="utf-8"?>
<!-- Generator: Adobe Illustrator 26.0.1, SVG Export Plug-In . SVG Version: 6.00 Build 0)  -->
<svg version="1.1" id="Layer_1" xmlns="http://www.w3.org/2000/svg" xmlns:xlink="http://www.w3.org/1999/xlink" x="0px" y="0px"
	 viewBox="0 0 185.9 164" style="enable-background:new 0 0 185.9 164;" xml:space="preserve">
<style type="text/css">
	.st0{fill:none;}
	.st1{fill:#FFFFFF;stroke:#000000;stroke-miterlimit:10;}
</style>
<path id="rect41953" class="st0" d="M-18.6,0H546c1.4,0,2.5,1.1,2.5,2.5v158.9c0,1.4-1.1,2.6-2.5,2.6H-18.6c-1.4,0-2.5-1.1-2.5-2.6
	V2.5C-21.1,1.1-20,0-18.6,0z"/>
<path id="path41955" class="st1" d="M84.9,136.9C70.3,131.5,68,100.5,80,68c3.3-8.2,7.3-16.1,12-23.6c8.2-12.2,17-19.7,25.2-21.4
	c1.4-0.3,2.8-0.4,4.2-0.4c2.4,0.5,4.8,1.1,4.8,1.4c-0.6,0.6-1.3,1-2,1.4c-13,7.2-26.5,27.7-33.6,51.1c-5.2,17.4-6.3,36.5-2.7,47.6
	c1.7,5.1,4.2,9,7,11.1l1.7,1.2l-2.2,0.6C91.8,137.7,87,137.7,84.9,136.9L84.9,136.9z M103.6,136.6c-2.7-1-6-4.2-7.8-7.6
	c-2-4.2-3.3-8.6-3.8-13.2c-0.6-4.8-0.3-17.2,0.6-23c3.5-22.2,14.4-45.9,27.1-59.3c7.2-7.6,15.9-11.9,21.8-10.8
	c1.1,0.2,2.3,0.5,3.4,0.9c1.1,0.5,1.2,0.5,0.4,1c-6.6,4-12.3,9.2-16.8,15.4c-19.4,25.8-28.5,68-18.9,88c1,2,2.3,3.9,3.9,5.5
	c0.8,0.8,1.6,1.6,2.3,2.6c0,0-1,0.4-2.1,0.8c-3.3,0.9-6.8,0.8-10-0.2L103.6,136.6z M125.2,137c-4.1-1.7-7.3-4.9-9.1-9
	c-5.8-12.2-5-32.5,2-54.2c8.8-27.3,25.4-48.6,39.7-51c1.8-0.4,3.7-0.4,5.4,0.2c2.8,0.6,5.2,2.1,7,4.3c2.4,2.6,4.2,6.1,5.4,10.9
	c1.6,6,2.3,15.1,1.6,20.2l-0.3,1.9h-11.7l-0.2-1.5C163.5,49,160.4,45,154.5,45c-9,0-21.2,15.8-26.1,33.9
	c-3.1,11.9-3.2,23.4-0.1,29.6c3.5,6.9,10.1,7.5,17.2,1.5l2.4-2h7.2c2.4-0.1,4.8,0,7.2,0.2c0,0.4-2.1,3.9-4.7,7.8
	c-6.6,10-14.3,17.2-21.6,20.3C133.4,137.4,127.2,137.8,125.2,137z M143.2,100.2c0.1-0.4,2.1-7.6,4.4-15.9s4.4-16.2,4.8-17.4l0.6-2.2
	h6c9.4,0,12.6,0.8,14.8,3.6c0.9,1.2,1.1,2,1.2,4.4c0.1,3.4-0.9,6.8-3,9.6c-1.5,2-3.4,3.6-5.6,4.7c-0.3,0.1,1.1,5.6,3.5,13.2
	c0.2,0.7-0.2,0.7-4.3,0.7h-4.5l-0.8-2.8c-0.4-1.5-1.2-4.3-1.7-6.2l-0.9-3.4h-3l-1.6,6.1l-1.6,6.1l-4.2,0.1
	C143.3,100.9,142.9,100.9,143.2,100.2L143.2,100.2z M163.2,80.9c1.8-1.3,2.9-3.3,3.1-5.5c0.3-1,0-2.1-0.9-2.7c-1-1-1.3-1.1-3.6-1
	l-2.5,0.2l-1,3.9c-0.6,2.2-1.2,4.4-1.4,5.1l-0.3,1.2l2.7-0.2c1.4-0.1,2.7-0.4,4-1L163.2,80.9z M50.3,87.3c-1.4-0.6-1.8-1.7-1.8-5.3
	c0-3.2,0.4-4.8,1.4-5.4c0.6-0.4,17.1-0.4,17.1,0c0,0.2-0.6,2.7-1.4,5.7l-1.4,5.4l-6.6,0.1C55.2,87.8,52.8,87.6,50.3,87.3z
	 M34.9,69.3c-0.7-0.7-0.8-1.4-0.8-5.1s0.1-4.4,0.8-4.9s2.7-0.7,19.9-0.7h19.2l-2.2,5.2c-0.8,1.9-1.6,3.8-2.2,5.8
	c0,0.4-3.7,0.5-16.9,0.5C36.3,70.1,35.7,70.1,34.9,69.3z M19.3,51.6c-0.7-0.7-0.8-1.4-0.8-4.9c0-6.4-4.1-5.8,33.7-5.8h32.1l-2.5,3.8
	c-1.4,2.1-3,4.7-3.6,5.8l-1.1,2H48.6C20.6,52.4,20.1,52.4,19.3,51.6L19.3,51.6z M9,35.1c-0.7-0.7-0.8-1.4-0.8-4.9
	c0-6.5-6.1-5.8,46.6-5.8c24.7,0,45.3,0.1,45.7,0.3s0,0.7-1.9,1.9c-2.3,1.7-4.5,3.5-6.5,5.5L88.1,36H48.9C10.4,36,9.8,36,9,35.1z"/>
</svg>
