<svg id="Layer_1" data-name="Layer 1" xmlns="http://www.w3.org/2000/svg" viewBox="0 0 569.63 164"><defs><style>.cls-1{fill:none;}.cls-2{fill:#fff;stroke:#000;stroke-miterlimit:10;}</style></defs><rect id="rect41953" class="cls-1" width="569.63" height="164" rx="2.55"/><path id="path41955" class="cls-2" d="M106.05,136.89c-14.64-5.38-16.88-36.36-4.94-68.86a152.14,152.14,0,0,1,12-23.64c8.17-12.21,17-19.71,25.22-21.42a14.92,14.92,0,0,1,4.21-.37c2.45.46,4.77,1.14,4.76,1.39a7.09,7.09,0,0,1-2,1.35c-13,7.23-26.5,27.69-33.56,51.05-5.24,17.36-6.33,36.52-2.69,47.58,1.67,5.08,4.16,9,7,11.08l1.67,1.21-2.16.64c-2.64.79-7.42.79-9.55,0Zm18.71-.25c-2.73-1-6-4.2-7.75-7.57a43.52,43.52,0,0,1-3.84-13.21c-.64-4.76-.32-17.19.61-23,3.52-22.2,14.36-45.91,27.11-59.28C148.1,26,156.8,21.7,162.66,22.79a23.07,23.07,0,0,1,3.36.88c1.15.45,1.18.52.45,1a57,57,0,0,0-16.84,15.45c-19.45,25.82-28.52,68-18.91,88a21.36,21.36,0,0,0,3.88,5.54,25.41,25.41,0,0,1,2.32,2.55s-1,.37-2.12.75a17.21,17.21,0,0,1-10-.21Zm21.52.36a17.22,17.22,0,0,1-9.06-9c-5.78-12.18-5-32.53,2-54.16,8.83-27.29,25.4-48.56,39.72-51a10.39,10.39,0,0,1,5.45.17,12.28,12.28,0,0,1,7,4.26c2.42,2.59,4.18,6.13,5.43,10.87,1.58,6,2.29,15.06,1.59,20.17l-.26,1.91H186.41l-.25-1.54C184.63,49,181.52,45,175.61,45c-9,0-21.21,15.79-26.06,33.86-3.14,11.87-3.24,23.39-.14,29.55,3.48,6.9,10.07,7.47,17.25,1.49l2.39-2h7.22a56,56,0,0,1,7.21.23c0,.41-2.12,3.94-4.67,7.79-6.63,10-14.32,17.21-21.64,20.35C154.49,137.44,148.32,137.84,146.28,137Zm147.61-14a2.34,2.34,0,0,1-1.43-2.49c0-1,.15-1.13,1.26-1.13a2.52,2.52,0,0,1,2,.91c.65.8.87.85,1.81.42,1.66-.75,1.35-1.88-1-3.55-1.79-1.29-2-1.66-2-2.91a4,4,0,0,1,1.17-2.75c1-1.14,1.49-1.33,3.6-1.47,2.84-.2,3.84.35,4,2.16.08,1.12,0,1.24-1.32,1.36-1,.09-1.52-.07-1.77-.51a1.45,1.45,0,0,0-2-.38,1.37,1.37,0,0,0-.38.38c-.48.57-.4.78.6,1.54,2.71,2.06,3.55,3.08,3.55,4.31,0,3.11-5.13,5.73-8,4.09Zm25.45-.09c-2.13-.93-2.09-2.08.29-10.21.8-2.73.84-2.78,2.24-2.78.78,0,1.42.13,1.42.28s-.57,2.39-1.27,5c-1.13,4.22-1.2,4.78-.64,5.34,1.08,1.08,2.59-.3,3.38-3.1,2.24-8,1.91-7.29,3.59-7.43a3.89,3.89,0,0,1,1.52,0c0,.08-.66,2.45-1.46,5.27-1.61,5.63-2.56,7.09-5.1,7.79a4.57,4.57,0,0,1-4-.17Zm-126.15-.75c.17-.51,1-3.43,1.82-6.48l1.52-5.55,2.22-.13c3-.18,5.23.52,5.74,1.84.56,1.49-.14,3.7-1.69,5.3-1.22,1.26-1.26,1.39-.81,3,.25.94.56,2,.69,2.31s-.16.59-1.44.59c-1.65,0-1.66,0-2.31-2.26-.36-1.24-.83-2.26-1.05-2.26-.53,0-1.11,1.18-1.45,3-.27,1.46-.36,1.53-1.91,1.53s-1.6-.07-1.33-.92ZM201,115c.82-1.25.38-2.34-1-2.55-.88-.13-1.11.2-1.89,2.7-.25.82-.14.92,1,.92a2.06,2.06,0,0,0,1.89-1Zm3.45,8c0-.06.8-3,1.77-6.48l1.77-6.37,3.8-.12,3.8-.12-.13,1.15c-.13,1.09-.25,1.15-2.52,1.27-2.11.11-2.42.24-2.77,1.16-.63,1.66-.5,1.8,1.71,1.8,1.74,0,2.05.11,1.85.65a4,4,0,0,0-.25,1.23c0,.44-.58.59-2.24.59-2.4,0-2.44,0-2.85,1.74l-.27,1.13h2.51c2.13,0,2.48.11,2.27.66a4.34,4.34,0,0,0-.25,1.23c0,.46-.83.58-4.11.58A39.89,39.89,0,0,1,204.48,123ZM215,122c.16-.64.95-3.56,1.76-6.5l1.48-5.35,1.54-.13a4.31,4.31,0,0,1,1.52,0c0,.07-.8,3-1.77,6.5l-1.77,6.38-1.52.12c-1.49.13-1.52.1-1.24-1Zm5.5,1c0-.07.81-3,1.79-6.5l1.78-6.37,3.76-.12a18.27,18.27,0,0,1,3.77.08,7.9,7.9,0,0,1-.4,1.25c-.36.93-.63,1-2.46,1-1.6,0-2.14.17-2.47.8-.87,1.63-.55,2.08,1.47,2.08,1.77,0,1.88.06,1.65.92a7.34,7.34,0,0,0-.25,1.22,4.61,4.61,0,0,1-2.13.41l-2.13.12-.65,2.47c-.64,2.42-.68,2.47-2.19,2.59a5,5,0,0,1-1.54,0Zm9.72-1c.16-.62.95-3.53,1.77-6.47l1.49-5.35,3.79-.12c3.09-.09,3.79,0,3.79.48,0,1.59-.48,1.9-2.88,1.9-2.11,0-2.4.1-2.62.93-.48,1.8-.34,2,1.79,2a6,6,0,0,1,2.06.18,8.83,8.83,0,0,1-.4,1.23c-.36.94-.63,1.06-2.44,1.06-2.2,0-2.25,0-2.66,1.74l-.27,1.13h2.47a9.37,9.37,0,0,1,2.48.18,7.79,7.79,0,0,1-.4,1.24c-.39,1-.49,1-4.33,1h-3.92Zm10,.92c0-.4,3.34-12.27,3.54-12.61a2.66,2.66,0,0,1,1.56-.34h1.35l.74,3.35c1,4.84,1.1,4.91,1.7,2,1-5,1.08-5.13,2.77-5.27a4.72,4.72,0,0,1,1.5,0c0,.07-.81,3-1.78,6.5L249.83,123h-3.16l-.5-2.27c-.27-1.24-.64-3-.81-3.9l-.32-1.65-.57,2.47c-1.32,5.69-1.25,5.55-2.81,5.55-.79,0-1.43-.09-1.43-.2Zm12.34.11c0-.06.81-3,1.79-6.48l1.79-6.37h3.1c5,0,5.55,1,4,6.84-.89,3.3-2.09,5-4,5.75-.83.29-6.68.55-6.67.24Zm6.31-3c.8-.8,2-4.91,1.83-6.31-.13-1.12-1.32-1.71-2-1a15.37,15.37,0,0,0-1.21,3.43c-.46,1.68-.93,3.38-1.05,3.78s0,.71.81.71a2.63,2.63,0,0,0,1.63-.61Zm5.2,2.8c0-.16.77-3.12,1.72-6.58l1.72-6.3h1.36c.83,0,1.37.21,1.37.52s-2.31,9.22-3.13,11.92c-.15.51-.64.72-1.63.72-.77,0-1.41-.13-1.41-.28Zm5.76.09c0-.41,3.33-12.28,3.54-12.63a13,13,0,0,1,3.93-.34c3.66,0,3.72,0,3.48.93a8.4,8.4,0,0,0-.26,1.23,5.16,5.16,0,0,1-2.46.31c-2.42,0-2.46,0-2.8,1.34l-.35,1.33,2.15.13c2.11.12,2.14.14,1.85,1.23s-.49,1.12-2.63,1.23c-1.48.08-2.34.31-2.35.62a6.82,6.82,0,0,1-.25,1.42c-.24.88-.14.92,2.23.92h2.5l-.3,1.14c-.3,1.12-.33,1.13-4.28,1.24A17.85,17.85,0,0,1,269.83,122.94Zm10.28-.09c0-.16.76-3.12,1.7-6.58l1.71-6.3h1.35a2.4,2.4,0,0,1,1.6.4,34.39,34.39,0,0,1,1,4c.42,2,.86,3.34,1,3s.52-2.07.91-3.84c.73-3.3,1.07-3.72,2.79-3.49l1,.13L292,114.49c-2.58,9.41-2.24,8.63-3.81,8.63a2.7,2.7,0,0,1-1.62-.34,39.3,39.3,0,0,1-.93-4l-.71-3.66-.93,3.69c-.5,2-.93,3.83-.94,4,0,.39-2.9.41-2.9,0Zm24.78-.24c.11-.29.7-2.37,1.3-4.63s1.19-4.42,1.31-4.82c.17-.59-.05-.72-1.26-.72-1.64,0-1.61,0-1.06-1.41.39-1,.46-1.06,4.73-1.06,3.85,0,4.32.08,4.32.72,0,1.2-.55,1.68-2.06,1.82l-1.43.14-1.41,5.24-1.4,5.24h-1.62C305.17,123.13,304.75,123,304.89,122.61Zm24.15.11c0-.23.74-3.09,1.64-6.37s1.65-6,1.65-6.17.65-.21,1.45-.21c1.68,0,1.64-.07,2.62,4.79l.74,3.64.48-2.26c1.26-6,1.31-6.17,2.8-6.17.82,0,1.36.21,1.36.52s-2.3,9.22-3.12,11.92c-.16.52-.65.72-1.76.72h-1.49l-.82-4-.82-4-.93,4-.94,4h-1.4c-.78,0-1.41-.18-1.41-.41Zm12.48-.51c.13-.51.94-3.47,1.79-6.58l1.55-5.66h2.38c3,0,5.12.85,5.46,2.2.29,1.15-1.18,7-2.12,8.41-1.18,1.81-3,2.55-6.28,2.55-2.89,0-3,0-2.77-.92Zm6.11-2.26a17.12,17.12,0,0,0,2-6.23c0-.57-.34-.94-1-1.11a2.14,2.14,0,0,0-1.25-.07q-1.31,3.85-2.22,7.82c0,.6,1.93.29,2.55-.41Zm9.58,2.28c.14-.52.93-3.45,1.77-6.5l1.53-5.55,2.25-.13c2.81-.17,5.18.51,5.79,1.64s.23,3.35-.67,4.74c-.81,1.23-3.62,2.57-5.42,2.58-1.23,0-1.37.16-1.89,2s-.67,2-2.09,2.08-1.5.06-1.27-.82Zm7.6-6.5c1-1,1.08-2.69.17-3-1.57-.6-2.13-.27-2.59,1.58-.25,1-.46,1.93-.46,2,0,.59,2.14.14,2.88-.59Zm4.87.93,3.57-6.48h3.28l.11,6.48.11,6.47h-1.64c-1.49,0-1.66-.1-1.66-1s-.16-1-1.65-1-1.74.18-2.12,1-.77,1-2,1h-1.54Zm4.18-.62a11.06,11.06,0,0,0,.08-2.37,33.41,33.41,0,0,0-2.14,4.77c0,.13.41.17.92.09.82-.11,1-.43,1.15-2.49Zm4.52,6.68c0-.23.74-3.09,1.64-6.37s1.65-6,1.65-6.17.65-.21,1.45-.21c1.68,0,1.64-.07,2.63,4.79.67,3.31.76,3.51,1,2.2.16-.79.59-2.68,1-4.21.67-2.73.71-2.78,2-2.78.82,0,1.36.21,1.36.52s-2.3,9.22-3.12,11.92c-.16.52-.65.72-1.76.72h-1.52l-.82-4-.82-4-.93,4-.93,4H379.8c-.78,0-1.41-.18-1.41-.41Zm12.48-.51c.13-.51.94-3.47,1.79-6.58L394.2,110h3l.72,3.4c1,4.84,1.1,4.91,1.71,2,1-5,1.08-5.13,2.76-5.27a4.2,4.2,0,0,1,1.5,0c0,.07-.81,3-1.78,6.5L400.35,123h-3.16l-.5-2.27c-.27-1.24-.64-3-.82-3.9l-.32-1.65-.56,2.47c-1.32,5.71-1.24,5.55-2.86,5.55-1.33,0-1.45-.09-1.23-.92Zm12.19.82c0-.06.81-3,1.79-6.48l1.78-6.37,3.76-.12c3.08-.09,3.77,0,3.77.48,0,1.56-.48,1.9-2.7,1.9-1.76,0-2.29.16-2.63.8-.9,1.67-.56,2.08,1.67,2.08,1.75,0,2.06.11,1.85.65a4,4,0,0,0-.25,1.23c0,.44-.58.59-2.23.59-2.4,0-2.45,0-2.86,1.74l-.27,1.13h2.52c2.13,0,2.48.11,2.27.66a4,4,0,0,0-.25,1.23c0,.46-.84.58-4.11.58a40.28,40.28,0,0,1-4.11-.1Zm10.54-1c.15-.62,1-3.53,1.76-6.47l1.48-5.35,1.49-.12,1.49-.13.68,3.21a34.6,34.6,0,0,0,1.05,4c.34.76.37.74.4-.21a28.61,28.61,0,0,1,.77-3.9c.74-2.88.74-2.88,2.27-3s1.51-.06,1.29.82c-.14.53-.93,3.45-1.77,6.51L423,122.94l-1.51.12c-1.68.14-1.65.22-2.83-5.47l-.51-2.47-.36,1.85c-.2,1-.64,2.83-1,4-.59,2.08-.66,2.16-2,2.16s-1.42-.06-1.16-1.13Zm12.31.21c.17-.51,1-3.43,1.82-6.48l1.52-5.55,1.5-.13c1.71-.14,1.7-.16.88,2.56s-.83,2.71,1,2.71c1.4,0,1.63-.14,1.87-1.13,1-4.3,1-4.22,2.5-4.22.79,0,1.43.19,1.43.42s-.77,3.19-1.72,6.58L435,123.16h-3l.74-2.67.74-2.67h-1.59c-1.57,0-1.6,0-2.23,2.22a18.89,18.89,0,0,0-.65,2.67c0,.25-.73.45-1.67.45-1.55,0-1.65-.07-1.38-.92Zm12.1.5c0-.23.77-3.19,1.71-6.58l1.71-6.16h1.37c.76,0,1.37.22,1.37.48s-2.07,8.27-3.13,12c-.15.51-.63.72-1.62.72-.78,0-1.41-.19-1.41-.42Zm5.75.19c0-.13.78-3.09,1.72-6.58l1.72-6.35h1.36c1.7,0,1.7.06.14,5.62-.68,2.42-1.24,4.55-1.24,4.74s.93.33,2.06.33c2.1,0,2.39.29,1.81,1.82-.21.53-1,.65-3.91.65a14.43,14.43,0,0,1-3.65-.26Zm9.31-.87c.15-.64.95-3.56,1.76-6.5l1.48-5.35,3.63-.12,3.62-.12-.14,1.15c-.12,1.08-.25,1.15-2.43,1.27s-2.31.16-2.73,1.54l-.44,1.42h2.06c1.71,0,2,.11,1.81.65a4.57,4.57,0,0,0-.25,1.21c0,.39-.67.6-2.16.69l-2.15.12-.65,2.47c-.64,2.41-.69,2.47-2.18,2.59s-1.51.1-1.23-1Zm9.34.19c.13-.52.94-3.48,1.79-6.59l1.56-5.66h3.85c3.79,0,3.85,0,3.6.93a8.38,8.38,0,0,0-.25,1.23,5.16,5.16,0,0,1-2.46.31c-2.42,0-2.46,0-2.8,1.34l-.35,1.33,2.15.13c2.11.12,2.14.14,1.85,1.23s-.49,1.12-2.64,1.23c-1.47.08-2.33.31-2.34.62a7.54,7.54,0,0,1-.25,1.42c-.24.88-.14.92,2.23.92h2.48l-.3,1.14c-.3,1.12-.32,1.13-4.34,1.24s-4,.12-3.78-.82Zm-34-21.49c-3.39-1.21-5.17-3.55-5.16-6.78,0-3.77-.06-3.71,4.76-3.71h4.25l-.05,1.5c-.07,1.9.84,2.61,3.34,2.6s3.78-.7,4.68-2.54c1.18-2.41.74-3-5.59-7.39-4.31-3-5.64-4.88-5.64-8,0-5.31,3.67-9.75,9.43-11.41a24.59,24.59,0,0,1,10-.22,7,7,0,0,1,5.25,6.72c0,3.15,0,3.13-4.82,3.13-3.83,0-4.28-.07-4-.67a2.22,2.22,0,0,0-.44-1.65c-.53-.8-1-1-2.7-1-2.46,0-4.08,1.27-4.08,3.2,0,1.44,1,2.41,6.07,5.84,4.53,3.06,5.85,4.89,5.85,8.09,0,5.52-3.61,10-9.79,12-3,1-8.87,1.15-11.35.26Zm-264.09-.54c.12-.4,2.09-7.58,4.38-15.94s4.45-16.19,4.78-17.38l.62-2.15h6c9.38,0,12.64.8,14.79,3.61.91,1.19,1.13,2,1.25,4.37a14.81,14.81,0,0,1-3,9.56C192,84,188.92,86.55,187.55,87c-.33.12,1.12,5.57,3.51,13.2.21.65-.18.72-4.3.72h-4.54l-.81-2.78c-.45-1.52-1.22-4.3-1.73-6.16l-.91-3.4h-3l-1.63,6.07-1.64,6.06-4.22.12c-3.9.11-4.21.06-4-.62Zm20-19.29a7.81,7.81,0,0,0,3.13-5.46,2.49,2.49,0,0,0-.87-2.69c-1-1-1.34-1.07-3.63-1l-2.53.16-1,3.91c-.59,2.15-1.21,4.44-1.37,5.09l-.3,1.19,2.68-.21a11.48,11.48,0,0,0,4-1Zm7.78,19.69c0-.17,4.42-8.26,9.81-18l9.8-17.68h9l.11,18,.11,18h-8.65V94.76h-8.64l-1.47,3.08-1.53,3.09h-4.23c-2.32,0-4.22-.14-4.21-.31ZM212.9,83c.26-2.76.61-6,.77-7.19s.2-2.09.08-2-1.25,2.58-2.53,5.48-2.69,5.85-3.13,6.57c-1.31,2.15-1.12,2.4,1.77,2.26l2.57-.12Zm12.24,16.63c.15-.73,2.35-8.83,4.88-18l4.62-16.65H242c8.55,0,10.3.43,12.68,3.07,2.58,2.85,2.48,4.76-.78,16.25-2.05,7.2-2.86,9-5.14,11.48-3.57,3.87-7.93,5.15-17.61,5.16h-6.31ZM241,93.17c1.93-1,2.91-3.11,5-10.54,2.64-9.59,2.45-10.52-2.29-10.82a7.06,7.06,0,0,0-2.67.09c0,.14-1.3,4.94-2.88,10.67s-2.88,10.63-2.88,10.89c0,.79,4.14.58,5.76-.29Zm14.8,7.45c0-.17,2.2-8.26,4.87-18l4.86-17.68,10.55-.11c12.07-.12,11-.54,9.78,4l-.75,2.67-6.58.11-6.58.12-.89,3.38c-.48,1.86-.88,3.52-.88,3.69s2.62.31,5.81.31h5.8l-.28,1.13c-.15.62-.55,2.1-.89,3.29L280,85.69H268.22l-.45,1.74c-.25,1-.72,2.66-1,3.78a20.84,20.84,0,0,0-.58,2.36c0,.19,3,.34,6.77.34,5.23,0,6.73.12,6.6.51s-.56,1.86-1,3.5l-.87,3h-10.9c-6,0-10.88-.13-10.88-.3Zm28-.21c0-.93,9.5-35,9.86-35.41.19-.19,3.74-.28,7.89-.18,6.42.16,7.81.31,9.38,1,3.74,1.68,5.34,4.78,4.74,9.17-.58,4.22-4.06,9.56-7.39,11.35-.8.43-1.46,1-1.46,1.14s.84,3.1,1.85,6.45,1.85,6.29,1.85,6.54-1.49.45-4.45.45h-4.45L300,94.85l-1.65-6.06h-3.14l-1.64,6.06-1.64,6.07h-4.05c-3,0-4-.14-4-.52ZM303.88,80.9a6.62,6.62,0,0,0,2.84-4.56c.47-3.52-.62-4.61-4.61-4.61h-2.23l-.47,1.75c-.25,1-.81,3-1.25,4.62a26.91,26.91,0,0,0-.78,3.45C297.38,82.44,302.5,81.93,303.88,80.9Zm11.35,18.69c.15-.73,2.34-8.83,4.88-18l4.61-16.65h7.4c8.32,0,9.72.32,12.17,2.54a7.34,7.34,0,0,1,2.43,5.66c0,1.84-4.07,16.55-5.22,18.85a16.11,16.11,0,0,1-6.27,6.59c-3.11,1.7-6.78,2.3-14,2.31H315Zm15.69-6.31c2.06-1,2.94-2.76,5-10.15,2.82-10.14,2.65-11-2.13-11.32a7.11,7.11,0,0,0-2.68.09c0,.14-1.29,4.94-2.88,10.67s-2.87,10.63-2.87,10.89c0,.72,3.95.59,5.57-.18Zm15,7.34c0-.17,2.19-8.26,4.86-18l4.86-17.68,4.22-.12c3.88-.1,4.19-.06,4,.62-.12.4-2.09,7.58-4.38,16S355,97.62,354.7,98.81l-.62,2.16H350c-2.25,0-4.08-.14-4.08-.31Zm16-1,4.91-17.85c2.49-9.08,4.54-16.62,4.54-16.75s4.81-.24,10.69-.24,10.69.11,10.69.25-.4,1.72-.89,3.5L391,71.77H378l-.66,2.36c-.36,1.3-.83,2.9-1,3.56a12.56,12.56,0,0,0-.38,1.33,55.39,55.39,0,0,0,5.76.15c4.32,0,5.75.12,5.76.51a28.17,28.17,0,0,1-.71,3.28L386,85.72l-6,.12L374,86,373,89.86l-1.08,3.9,6.77.12,6.78.11-.26.91c-.14.51-.55,2.08-.92,3.49l-.66,2.57h-22Zm27.54,1.17c0-.16,8.08-29.65,9.28-33.86l.61-2.15h4.1a29.53,29.53,0,0,1,4.1.14c0,.08.76,3.36,1.68,7.3s2,9,2.4,11.26c.68,3.84.75,4,1,2.47,1.07-6.12,2.47-12.58,3.58-16.55l1.29-4.62h4.06c2.23,0,4.06.13,4.05.3s-2.2,8.27-4.88,18l-4.87,17.68-4.17.12a26.26,26.26,0,0,1-4.16,0c0-.09-.73-3.38-1.62-7.31s-1.84-8.72-2.11-10.64a27.13,27.13,0,0,0-.76-4c-.16-.29-.51.91-.8,2.67-.46,2.84-3,13.74-4.18,17.9l-.44,1.54h-4.09a25.4,25.4,0,0,1-4.09-.17Zm67.84-.15c0-.26,6.94-25.79,7.65-28.16.2-.65-.17-.71-3.9-.71h-4.12l.36-1.14c.2-.62.66-2.19,1-3.49l.66-2.36h12.32c13.38,0,12.73-.13,11.94,2.3-.22.65-.6,2-.84,2.94l-.45,1.75h-8.17l-.61,2.15c-.34,1.19-2.11,7.61-3.94,14.26s-3.42,12.25-3.53,12.44c-.27.43-8.39.45-8.39,0ZM71.41,87.34C70,86.77,69.64,85.62,69.64,82c0-3.19.4-4.78,1.39-5.44.6-.4,17.11-.4,17.1,0,0,.17-.62,2.71-1.36,5.65l-1.36,5.37-6.56.08A46.28,46.28,0,0,1,71.41,87.34ZM488.78,87c.12-.39,1.25-4.88,2.52-10s2.48-9.94,2.7-10.79l.41-1.54h25.52c20.24,0,25.48.1,25.33.51s-1.44,5.46-3,11.51l-2.81,11H514c-24.05,0-25.44,0-25.24-.72Zm13.44-4.23c.85-.45,1.09-2.22.36-2.67s-2.39.18-2.87,1.07c-.87,1.57.7,2.57,2.47,1.62Zm10.17-.56c2-1,3-2.57,4-6,1.25-4.27,1.24-5.09,0-6.36-1-1-1.27-1-4.41-.91l-3.39.12-1.75,6.38c-1,3.5-1.75,6.6-1.76,6.88,0,.74,5.87.69,7.32-.06Zm-3.21-2.58c0-1.29,2.28-8.36,2.7-8.36,1.09,0,1.82.53,1.82,1.33,0,1.49-1.29,5.86-2,6.59S509.18,80.22,509.18,79.66Zm16.57,2.85a8.65,8.65,0,0,0,.44-1.42c.26-1.11.26-1.11-2.34-1.24l-2.6-.12.35-1.33c.34-1.31.4-1.34,2.61-1.34,2,0,2.3-.1,2.66-1,.64-1.7.52-1.83-1.87-1.83s-2.27,0-2-1.13c.41-1.76.41-1.76,3-1.76,2.26,0,2.49-.08,2.86-1a8.83,8.83,0,0,0,.4-1.23,26,26,0,0,0-4.32-.18,23.13,23.13,0,0,0-4.32.2c0,.19-3,11.33-3.54,13.06-.19.65.18.72,4.11.72a17.82,17.82,0,0,0,4.49-.31ZM56,69.27c-.72-.72-.82-1.37-.82-5.08s.11-4.36.75-4.93,2.66-.68,19.89-.68H95l-2.2,5.24a56.5,56.5,0,0,0-2.21,5.76c0,.4-3.65.51-16.86.51C57.4,70.09,56.82,70.09,56,69.27Zm154.7-8.73c-1.4-.67-1.26-2.92.28-4.46a3.47,3.47,0,0,1,3.07-1.2c1.56,0,2,.18,2.56,1s.65,1.15,0,2.49a4.54,4.54,0,0,1-5.92,2.12Zm9.46-.11c-1.07-.77-1.17-1.83-.34-3.44,1-2,4.76-2.87,6.17-1.47C228.54,58.05,223.16,62.58,220.19,60.43ZM40.41,51.59c-.71-.71-.82-1.37-.82-4.94,0-6.44-4.05-5.75,33.71-5.75h32.06l-2.47,3.76c-1.36,2.07-3,4.66-3.59,5.76l-1.12,2H69.7c-27.93,0-28.49,0-29.3-.82ZM30.12,35.14c-.71-.71-.82-1.37-.82-4.93,0-6.51-6.05-5.76,46.64-5.76,24.74,0,45.29.12,45.66.26s0,.69-1.92,1.94a56.32,56.32,0,0,0-6.54,5.5L109.2,36H70.07C31.49,36,30.93,36,30.12,35.14Z"/></svg>