<svg id="Layer_1" data-name="Layer 1" xmlns="http://www.w3.org/2000/svg" viewBox="0 0 569.63 164"><defs><style>.cls-1{fill:none;}.cls-2{fill:#fff;stroke:#000;stroke-miterlimit:10;}</style></defs><rect id="rect41953" class="cls-1" width="569.63" height="164" rx="2.55"/><path id="path41955" class="cls-2" d="M106.05,136.89c-14.64-5.38-16.88-36.36-4.94-68.86a152.14,152.14,0,0,1,12-23.64c8.17-12.21,17-19.71,25.22-21.42a14.92,14.92,0,0,1,4.21-.37c2.45.46,4.77,1.14,4.76,1.39a7,7,0,0,1-2,1.35c-13,7.23-26.5,27.69-33.56,51.05-5.24,17.36-6.33,36.52-2.69,47.58,1.67,5.08,4.16,9,7,11.08l1.67,1.21-2.16.64c-2.64.79-7.42.79-9.55,0Zm18.71-.25c-2.73-1-6-4.2-7.75-7.57a43.52,43.52,0,0,1-3.84-13.21c-.64-4.76-.32-17.19.61-23,3.52-22.2,14.36-45.91,27.11-59.28C148.1,26,156.8,21.7,162.66,22.79a23.07,23.07,0,0,1,3.36.88c1.15.45,1.18.52.45,1a57,57,0,0,0-16.84,15.45c-19.45,25.82-28.52,68-18.91,88a21.36,21.36,0,0,0,3.88,5.54,25.41,25.41,0,0,1,2.32,2.55s-1,.37-2.12.75a17.21,17.21,0,0,1-10-.21Zm21.52.36a17.22,17.22,0,0,1-9.06-9c-5.78-12.18-5-32.53,2-54.16,8.83-27.29,25.4-48.56,39.72-51a10.39,10.39,0,0,1,5.45.17,12.31,12.31,0,0,1,7,4.26c2.42,2.59,4.18,6.13,5.43,10.87,1.58,6,2.29,15.06,1.59,20.17l-.26,1.91H186.41l-.25-1.54C184.63,49,181.52,45,175.61,45c-9,0-21.21,15.79-26.06,33.86-3.14,11.87-3.24,23.39-.14,29.55,3.48,6.9,10.07,7.47,17.25,1.49l2.39-2h7.22a56,56,0,0,1,7.21.23c0,.41-2.12,3.94-4.67,7.79-6.63,10-14.32,17.21-21.64,20.35C154.49,137.44,148.32,137.84,146.28,137Zm173.51-10.64a2.93,2.93,0,0,1-1.8-3.13c0-1.25.19-1.42,1.58-1.42a3.18,3.18,0,0,1,2.52,1.15c.82,1,1.09,1.06,2.27.52,2.09-.94,1.7-2.36-1.25-4.46-2.25-1.62-2.52-2.08-2.52-3.66a5,5,0,0,1,1.47-3.45c1.26-1.43,1.88-1.67,4.53-1.85,3.57-.25,4.82.44,5,2.72.1,1.4,0,1.55-1.66,1.7-1.26.12-1.91-.08-2.23-.64a1.81,1.81,0,0,0-2.51-.47,1.65,1.65,0,0,0-.48.47c-.6.72-.5,1,.75,1.94,3.41,2.59,4.47,3.87,4.47,5.42,0,3.91-6.45,7.2-10.06,5.14Zm32-.11c-2.68-1.17-2.63-2.62.36-12.83,1-3.43,1.06-3.5,2.82-3.5,1,0,1.78.17,1.78.35s-.72,3-1.6,6.29c-1.42,5.3-1.5,6-.8,6.71,1.36,1.36,3.25-.38,4.25-3.9,2.81-10.05,2.4-9.16,4.51-9.33a4.73,4.73,0,0,1,1.91,0c0,.1-.83,3.08-1.84,6.62-2,7.08-3.21,8.91-6.41,9.79a5.74,5.74,0,0,1-5-.21Zm-158.56-.94c.22-.64,1.26-4.31,2.29-8.15l1.91-7,2.79-.17c3.77-.22,6.57.66,7.21,2.32.71,1.87-.17,4.65-2.12,6.66-1.53,1.58-1.58,1.74-1,3.77.32,1.18.71,2.51.87,2.9s-.2.74-1.81.74c-2.07,0-2.09,0-2.9-2.84-.46-1.56-1.05-2.84-1.32-2.84-.67,0-1.4,1.48-1.83,3.77-.33,1.84-.45,1.93-2.4,1.93s-2-.09-1.67-1.16Zm9.82-9c1-1.57.48-2.94-1.26-3.21-1.1-.16-1.39.25-2.37,3.4-.32,1-.18,1.15,1.25,1.15A2.59,2.59,0,0,0,203,116.4Zm4.33,10c0-.07,1-3.77,2.23-8.14l2.22-8,4.78-.15,4.78-.15-.17,1.45c-.16,1.37-.31,1.44-3.16,1.59-2.66.14-3.05.3-3.49,1.46-.79,2.09-.62,2.26,2.15,2.26,2.19,0,2.58.14,2.33.82a5,5,0,0,0-.32,1.54c0,.56-.73.75-2.81.75-3,0-3.07,0-3.58,2.18l-.34,1.42h3.15c2.68,0,3.12.14,2.85.83a5.84,5.84,0,0,0-.31,1.55c0,.58-1,.73-5.16.73-1.71,0-3.41,0-5.11-.13Zm13.26-1.25c.21-.81,1.2-4.48,2.22-8.17l1.86-6.73,1.93-.16a5.57,5.57,0,0,1,1.91,0c0,.09-1,3.77-2.22,8.17l-2.23,8-1.91.15C220.33,126.48,220.29,126.44,220.64,125.06Zm6.92,1.25c0-.09,1-3.77,2.25-8.17l2.23-8,4.73-.15a22.76,22.76,0,0,1,4.74.1,10.62,10.62,0,0,1-.5,1.57c-.46,1.17-.8,1.25-3.1,1.25-2,0-2.69.22-3.1,1-1.09,2-.69,2.61,1.85,2.61,2.22,0,2.36.08,2.07,1.16a8.83,8.83,0,0,0-.31,1.53,5.76,5.76,0,0,1-2.68.52l-2.68.15-.81,3.1c-.81,3-.86,3.11-2.76,3.26a6.25,6.25,0,0,1-1.93,0Zm12.21-1.25c.2-.78,1.2-4.44,2.23-8.14l1.87-6.72,4.76-.15c3.89-.11,4.77,0,4.77.6,0,2-.61,2.39-3.62,2.39-2.65,0-3,.13-3.29,1.17-.61,2.26-.43,2.51,2.25,2.51a7.47,7.47,0,0,1,2.58.23,10.25,10.25,0,0,1-.5,1.54c-.45,1.19-.79,1.34-3.07,1.34-2.76,0-2.82,0-3.34,2.18l-.34,1.42h3.11a12,12,0,0,1,3.11.23,9.76,9.76,0,0,1-.5,1.56c-.49,1.26-.61,1.26-5.44,1.26h-4.93Zm12.57,1.15c0-.5,4.2-15.42,4.45-15.85a3.27,3.27,0,0,1,2-.42h1.7l.93,4.21c1.26,6.08,1.38,6.17,2.14,2.51,1.25-6.28,1.35-6.45,3.48-6.62a5.93,5.93,0,0,1,1.88,0c0,.08-1,3.77-2.23,8.17l-2.23,8.1h-4l-.63-2.85c-.34-1.56-.8-3.77-1-4.9l-.4-2.08-.72,3.11c-1.66,7.15-1.57,7-3.53,7-1,0-1.8-.11-1.8-.25Zm15.51.14c0-.08,1-3.77,2.25-8.14l2.25-8h3.9c6.28,0,7,1.26,5,8.6-1.12,4.14-2.63,6.28-5,7.22-1.05.37-8.4.69-8.39.3Zm7.93-3.77c1-1,2.52-6.17,2.3-7.93-.16-1.41-1.66-2.15-2.51-1.26a18.89,18.89,0,0,0-1.52,4.31c-.58,2.11-1.17,4.25-1.32,4.75s0,.9,1,.9a3.35,3.35,0,0,0,2-.77Zm6.54,3.52c0-.2,1-3.92,2.16-8.27l2.16-7.92h1.71c1,0,1.72.26,1.72.65s-2.9,11.59-3.93,15c-.19.64-.81.9-2.05.9-1,0-1.77-.16-1.77-.35Zm7.24.11c0-.51,4.18-15.43,4.45-15.87a16.09,16.09,0,0,1,4.94-.43c4.6,0,4.67,0,4.37,1.17a10.44,10.44,0,0,0-.33,1.55,6.37,6.37,0,0,1-3.09.38c-3,0-3.09,0-3.52,1.69l-.44,1.67,2.71.16c2.65.15,2.68.18,2.32,1.55s-.62,1.41-3.31,1.55c-1.86.1-2.94.39-3,.78a9,9,0,0,1-.31,1.78c-.3,1.11-.18,1.16,2.8,1.16h3.14l-.38,1.43c-.37,1.41-.41,1.42-5.37,1.56a22.59,22.59,0,0,1-5-.1Zm12.92-.11c0-.2.95-3.92,2.14-8.27l2.14-7.92h1.7a3,3,0,0,1,2,.5,43,43,0,0,1,1.26,5c.53,2.51,1.08,4.2,1.26,3.77s.65-2.6,1.14-4.83c.92-4.14,1.34-4.67,3.51-4.38l1.25.16-1.47,5.46c-3.24,11.82-2.81,10.84-4.79,10.84a3.41,3.41,0,0,1-2-.42,47.12,47.12,0,0,1-1.17-5l-.89-4.6-1.17,4.64c-.63,2.51-1.17,4.81-1.18,5,0,.49-3.65.52-3.65,0Zm31.14-.3c.14-.37.88-3,1.64-5.82s1.49-5.56,1.64-6.06c.22-.74-.06-.91-1.58-.91-2.06,0-2,0-1.33-1.77.49-1.25.58-1.33,5.94-1.33,4.84,0,5.43.1,5.43.91,0,1.5-.69,2.11-2.59,2.28l-1.79.18-1.78,6.58-1.76,6.59h-2c-1.43,0-2-.14-1.79-.63ZM364,126c0-.29.93-3.89,2.06-8s2.07-7.54,2.07-7.76S369,110,370,110c2.12,0,2.07-.09,3.3,6l.93,4.58.6-2.84c1.58-7.55,1.65-7.76,3.52-7.76,1,0,1.71.26,1.71.65s-2.89,11.59-3.92,15c-.2.65-.82.9-2.21.9H372l-1-5-1-5-1.17,5-1.18,5H365.8c-1,0-1.77-.23-1.77-.51Zm15.68-.65c.17-.64,1.18-4.36,2.25-8.27l2-7.11h3c3.77,0,6.44,1.07,6.86,2.77.37,1.44-1.48,8.79-2.66,10.57-1.48,2.27-3.77,3.2-7.89,3.2-3.64,0-3.77,0-3.49-1.16Zm7.68-2.84a21.42,21.42,0,0,0,2.52-7.83c0-.71-.43-1.18-1.26-1.39a2.63,2.63,0,0,0-1.57-.09,99,99,0,0,0-2.79,9.83c0,.75,2.42.36,3.2-.52Zm12,2.87c.18-.65,1.17-4.34,2.23-8.17l1.92-7,2.83-.16c3.53-.21,6.51.64,7.28,2.06s.28,4.21-.85,6c-1,1.55-4.55,3.23-6.81,3.24-1.55,0-1.72.2-2.37,2.52s-.85,2.51-2.63,2.61-1.89.08-1.6-1Zm9.55-8.17c1.26-1.26,1.36-3.38.22-3.77-2-.75-2.68-.34-3.26,2-.31,1.25-.58,2.42-.58,2.51C405.29,118.69,408,118.12,408.91,117.21Zm6.13,1.17,4.48-8.15h4.12l.14,8.15.14,8.13h-2.06c-1.87,0-2.09-.13-2.09-1.26s-.2-1.25-2.07-1.25-2.19.22-2.66,1.25-1,1.26-2.52,1.26H410.6Zm5.25-.78a14.33,14.33,0,0,0,.1-3,42.43,42.43,0,0,0-2.69,6c0,.16.52.21,1.16.11,1-.14,1.25-.54,1.44-3.13ZM426,126c0-.29.93-3.89,2.06-8s2.08-7.54,2.08-7.76S431,110,432,110c2.11,0,2.06-.09,3.3,6,.85,4.16,1,4.41,1.26,2.77.2-1,.74-3.37,1.26-5.3.84-3.43.89-3.49,2.51-3.49,1,0,1.71.26,1.71.65s-2.89,11.59-3.92,15c-.2.65-.82.9-2.21.9H434l-1-5-1-5-1.16,5-1.17,5h-1.78c-1,0-1.77-.23-1.77-.51Zm15.69-.65c.16-.64,1.18-4.36,2.25-8.27l1.94-7h3.77l.91,4.28c1.26,6.08,1.38,6.17,2.15,2.51,1.26-6.28,1.36-6.45,3.47-6.62a5,5,0,0,1,1.88,0c0,.08-1,3.77-2.23,8.17l-2.22,8h-4l-.63-2.85c-.34-1.56-.8-3.77-1-4.9l-.4-2.08-.7,3.11c-1.66,7.17-1.56,7-3.6,7-1.67,0-1.82-.11-1.54-1.15Zm15.32,1c0-.07,1-3.77,2.25-8.14l2.23-8,4.73-.15c3.87-.11,4.74,0,4.74.61,0,2-.61,2.38-3.4,2.38-2.21,0-2.87.21-3.3,1-1.13,2.1-.7,2.61,2.1,2.61,2.2,0,2.59.14,2.32.82a5.15,5.15,0,0,0-.31,1.55c0,.55-.73.74-2.8.74-3,0-3.08,0-3.6,2.19l-.34,1.42h3.17c2.68,0,3.12.13,2.85.83a5,5,0,0,0-.31,1.54c0,.58-1.06.73-5.17.73a49.39,49.39,0,0,1-5.16-.13Zm13.24-1.25c.19-.78,1.26-4.44,2.22-8.13l1.86-6.73,1.87-.15,1.87-.16.86,4a43.28,43.28,0,0,0,1.32,5c.42.95.46.93.5-.26a35.61,35.61,0,0,1,1-4.91c.93-3.62.93-3.62,2.85-3.77s1.9-.07,1.62,1c-.17.67-1.17,4.34-2.22,8.19l-1.89,7-1.9.15c-2.11.17-2.07.27-3.55-6.88l-.64-3.1-.46,2.32c-.25,1.26-.8,3.56-1.25,5-.75,2.62-.83,2.72-2.52,2.72s-1.78-.08-1.46-1.42Zm15.48.26c.21-.64,1.25-4.31,2.28-8.14l1.91-7,1.89-.16c2.15-.18,2.14-.2,1.11,3.22s-1,3.4,1.25,3.4c1.76,0,2.05-.17,2.35-1.42,1.26-5.4,1.26-5.3,3.14-5.3,1,0,1.8.24,1.8.53s-1,4-2.16,8.27l-2.14,7.76h-3.77l.93-3.35.93-3.36h-2c-2,0-2,0-2.8,2.79a25.72,25.72,0,0,0-.82,3.36c0,.31-.91.56-2.09.56-2,0-2.08-.08-1.74-1.15Zm15.2.63c0-.29,1-4,2.15-8.27l2.15-7.74H507c1,0,1.73.27,1.73.6s-2.61,10.4-3.94,15.08c-.19.64-.79.91-2,.91-1,0-1.78-.24-1.78-.53Zm7.23.24c0-.16,1-3.88,2.16-8.27l2.16-8h1.71c2.14,0,2.14.07.18,7.06-.85,3-1.56,5.72-1.56,6s1.17.41,2.59.41c2.64,0,3,.37,2.28,2.29-.27.67-1.26.82-4.92.82a18.59,18.59,0,0,1-4.59-.33Zm11.7-1.09c.19-.81,1.2-4.48,2.21-8.17l1.86-6.73,4.57-.15L533,110l-.18,1.45c-.15,1.35-.31,1.44-3.05,1.59s-2.91.2-3.43,1.94l-.56,1.78h2.59c2.15,0,2.52.14,2.28.82a5.64,5.64,0,0,0-.32,1.52c0,.49-.84.75-2.71.87l-2.7.15-.82,3.1c-.81,3-.87,3.11-2.74,3.26s-1.9.12-1.55-1.26Zm11.74.23c.16-.65,1.18-4.37,2.25-8.28l2-7.11h4.84c4.76,0,4.84,0,4.53,1.17a10,10,0,0,0-.32,1.54,6.38,6.38,0,0,1-3.09.39c-3,0-3.09,0-3.52,1.69l-.44,1.67,2.7.16c2.65.15,2.69.18,2.33,1.55s-.62,1.41-3.32,1.54c-1.85.1-2.93.39-2.94.78a9,9,0,0,1-.32,1.79c-.3,1.1-.17,1.15,2.81,1.15h3.11l-.37,1.44c-.38,1.4-.4,1.42-5.46,1.56s-5,.15-4.75-1ZM428.4,100.74c-3.39-1.21-5.17-3.55-5.16-6.78,0-3.77-.06-3.71,4.76-3.71h4.25l-.05,1.5c-.07,1.9.84,2.61,3.34,2.6s3.78-.7,4.68-2.54c1.18-2.41.74-3-5.59-7.39-4.31-3-5.64-4.88-5.64-8,0-5.31,3.67-9.75,9.43-11.41a24.59,24.59,0,0,1,10-.22,7,7,0,0,1,5.25,6.72c0,3.15,0,3.13-4.82,3.13-3.83,0-4.28-.07-4-.67a2.22,2.22,0,0,0-.44-1.65c-.53-.8-1-1-2.7-1-2.46,0-4.08,1.27-4.08,3.2,0,1.44,1,2.41,6.07,5.84,4.53,3.06,5.85,4.89,5.85,8.09,0,5.52-3.61,10-9.79,12-3,1-8.87,1.15-11.35.26Zm-264.09-.54c.12-.4,2.09-7.58,4.38-15.94s4.45-16.19,4.78-17.38l.62-2.15h6c9.38,0,12.64.8,14.79,3.61.91,1.19,1.13,2,1.25,4.37a14.81,14.81,0,0,1-3,9.56A15.92,15.92,0,0,1,187.55,87c-.33.12,1.12,5.57,3.51,13.2.21.65-.18.72-4.3.72h-4.54l-.81-2.78c-.45-1.52-1.22-4.3-1.73-6.16l-.91-3.4h-3l-1.63,6.07-1.64,6.06-4.22.12c-3.9.11-4.21.06-4-.62Zm20-19.29a7.81,7.81,0,0,0,3.13-5.46,2.49,2.49,0,0,0-.87-2.69c-1-1-1.34-1.07-3.63-1l-2.53.16-1,3.91c-.59,2.15-1.21,4.44-1.37,5.09l-.3,1.19,2.68-.21a11.55,11.55,0,0,0,4-1Zm7.78,19.69c0-.17,4.42-8.26,9.81-18l9.8-17.68h9l.11,18,.11,18h-8.65V94.76h-8.64l-1.47,3.08-1.53,3.09H196.4c-2.32,0-4.22-.14-4.21-.31ZM212.9,83c.26-2.76.61-6,.77-7.19s.2-2.09.08-2-1.25,2.58-2.53,5.48-2.69,5.85-3.13,6.57c-1.31,2.15-1.12,2.4,1.77,2.26l2.57-.12Zm12.24,16.63c.15-.73,2.35-8.83,4.88-18L234.64,65H242c8.55,0,10.3.43,12.68,3.07,2.58,2.85,2.48,4.76-.78,16.25-2.05,7.2-2.86,9-5.14,11.48-3.57,3.87-7.93,5.15-17.61,5.16h-6.31ZM241,93.17c1.93-1,2.91-3.11,5-10.54,2.64-9.59,2.45-10.52-2.29-10.82a7.06,7.06,0,0,0-2.67.09c0,.14-1.3,4.94-2.88,10.67s-2.88,10.63-2.88,10.89c0,.79,4.14.58,5.76-.29Zm14.8,7.45c0-.17,2.2-8.26,4.87-18l4.86-17.68,10.55-.11c12.07-.12,11-.54,9.78,4l-.75,2.67-6.58.11-6.58.12-.89,3.38c-.48,1.86-.88,3.52-.88,3.69s2.62.31,5.81.31h5.8l-.28,1.13c-.15.62-.55,2.1-.89,3.29L280,85.69H268.22l-.45,1.74c-.25,1-.72,2.66-1,3.78a20.84,20.84,0,0,0-.58,2.36c0,.19,3,.34,6.77.34,5.23,0,6.73.12,6.6.51s-.56,1.86-1,3.5l-.87,3h-10.9c-6,0-10.88-.13-10.88-.3Zm28-.21c0-.93,9.5-35,9.86-35.41.19-.19,3.74-.28,7.89-.18,6.42.16,7.81.31,9.38,1,3.74,1.68,5.34,4.78,4.74,9.17-.58,4.22-4.06,9.56-7.39,11.35a4,4,0,0,0-1.46,1.14c0,.14.84,3.1,1.85,6.45s1.85,6.29,1.85,6.54-1.49.45-4.45.45h-4.45L300,94.85l-1.65-6.06h-3.14l-1.64,6.06-1.64,6.07h-4.05c-3,0-4-.14-4-.52ZM303.88,80.9a6.62,6.62,0,0,0,2.84-4.56c.47-3.52-.62-4.61-4.61-4.61h-2.23l-.47,1.75c-.25,1-.81,3-1.25,4.62a25.32,25.32,0,0,0-.78,3.45C297.38,82.44,302.5,81.93,303.88,80.9Zm11.35,18.69c.15-.73,2.34-8.83,4.88-18l4.61-16.65h7.4c8.32,0,9.72.32,12.17,2.54a7.34,7.34,0,0,1,2.43,5.66c0,1.84-4.07,16.55-5.22,18.85a16.11,16.11,0,0,1-6.27,6.59c-3.11,1.7-6.78,2.3-14,2.31H315Zm15.69-6.31c2.06-1,2.94-2.76,5-10.15,2.82-10.14,2.65-11-2.13-11.32a7.11,7.11,0,0,0-2.68.09c0,.14-1.29,4.94-2.88,10.67s-2.87,10.63-2.87,10.89c0,.72,3.95.59,5.57-.18Zm15,7.34c0-.17,2.19-8.26,4.86-18l4.86-17.68,4.22-.12c3.88-.1,4.19-.06,4,.62-.12.4-2.09,7.58-4.38,16S355,97.62,354.7,98.81l-.62,2.16H350c-2.25,0-4.08-.14-4.08-.31Zm16-1,4.91-17.85c2.49-9.08,4.54-16.62,4.54-16.75s4.81-.24,10.69-.24,10.69.11,10.69.25-.4,1.72-.89,3.5L391,71.77H378l-.66,2.36c-.36,1.3-.83,2.9-1,3.56A12,12,0,0,0,376,79a55.39,55.39,0,0,0,5.76.15c4.32,0,5.75.12,5.76.51a28.17,28.17,0,0,1-.71,3.28L386,85.72l-6,.12L374,86l-1,3.86-1.08,3.9,6.77.12,6.78.11-.26.91c-.14.51-.55,2.08-.92,3.49l-.66,2.57h-22Zm27.54,1.17c0-.16,8.08-29.65,9.28-33.86l.61-2.15h4.1a29.53,29.53,0,0,1,4.1.14c0,.08.76,3.36,1.68,7.3s2,9,2.4,11.26c.68,3.84.75,4,1,2.47,1.07-6.12,2.47-12.58,3.58-16.55l1.29-4.62h4.06c2.23,0,4.06.13,4.05.3s-2.2,8.27-4.88,18l-4.87,17.68-4.17.12a26.26,26.26,0,0,1-4.16,0c0-.09-.73-3.38-1.62-7.31s-1.84-8.72-2.11-10.64a27.13,27.13,0,0,0-.76-4c-.16-.29-.51.91-.8,2.67-.46,2.84-3,13.74-4.18,17.9l-.44,1.54h-4.09a25.4,25.4,0,0,1-4.09-.17Zm67.84-.15c0-.26,6.94-25.79,7.65-28.16.2-.65-.17-.71-3.9-.71h-4.12l.36-1.14c.2-.62.66-2.19,1-3.49l.66-2.36h12.32c13.38,0,12.73-.13,11.94,2.3-.22.65-.6,2-.84,2.94l-.45,1.75h-8.17l-.61,2.15c-.34,1.19-2.11,7.61-3.94,14.26s-3.42,12.25-3.53,12.44c-.27.43-8.39.45-8.39,0ZM71.41,87.34C70,86.77,69.64,85.62,69.64,82c0-3.19.4-4.78,1.39-5.44.6-.4,17.11-.4,17.1,0,0,.17-.62,2.71-1.36,5.65l-1.36,5.37-6.56.08A46.28,46.28,0,0,1,71.41,87.34ZM488.78,87c.12-.39,1.25-4.88,2.52-10s2.48-9.94,2.7-10.79l.41-1.54h25.52c20.24,0,25.48.1,25.33.51s-1.44,5.46-3,11.51l-2.81,11H514c-24.05,0-25.44,0-25.24-.72Zm13.44-4.23c.85-.45,1.09-2.22.36-2.67s-2.39.18-2.87,1.07c-.87,1.57.7,2.57,2.47,1.62Zm10.17-.56c2-1,3-2.57,4-6,1.25-4.27,1.24-5.09,0-6.36-1-1-1.27-1-4.41-.91l-3.39.12-1.75,6.38c-1,3.5-1.75,6.6-1.76,6.88,0,.74,5.87.69,7.32-.06Zm-3.21-2.58c0-1.29,2.28-8.36,2.7-8.36,1.09,0,1.82.53,1.82,1.33,0,1.49-1.29,5.86-2,6.59s-2.52,1-2.52.47Zm16.57,2.85a8.65,8.65,0,0,0,.44-1.42c.26-1.11.26-1.11-2.34-1.24l-2.6-.12.35-1.33c.34-1.31.4-1.34,2.61-1.34,2,0,2.3-.1,2.66-1,.64-1.7.52-1.83-1.87-1.83s-2.27,0-2-1.13c.41-1.76.41-1.76,3-1.76,2.26,0,2.49-.08,2.86-1a8.83,8.83,0,0,0,.4-1.23,26,26,0,0,0-4.32-.18,23.13,23.13,0,0,0-4.32.2c0,.19-3,11.33-3.54,13.06-.19.65.18.72,4.11.72a17.82,17.82,0,0,0,4.49-.31ZM56,69.27c-.72-.72-.82-1.37-.82-5.08s.11-4.36.75-4.93,2.66-.68,19.89-.68H95l-2.2,5.24a56.5,56.5,0,0,0-2.21,5.76c0,.4-3.65.51-16.86.51C57.4,70.09,56.82,70.09,56,69.27Zm154.7-8.73c-1.4-.67-1.26-2.92.28-4.46a3.48,3.48,0,0,1,3.07-1.2c1.56,0,2,.18,2.56,1s.65,1.15,0,2.49a4.54,4.54,0,0,1-5.92,2.12Zm9.46-.11c-1.07-.77-1.17-1.83-.34-3.44,1-2,4.76-2.87,6.17-1.47,2.55,2.53-2.83,7.06-5.8,4.91ZM40.41,51.59c-.71-.71-.82-1.37-.82-4.94,0-6.44-4.05-5.75,33.71-5.75h32.06l-2.47,3.76c-1.36,2.07-3,4.66-3.59,5.76l-1.12,2H69.7c-27.93,0-28.49,0-29.3-.82ZM30.12,35.14c-.71-.71-.82-1.37-.82-4.93,0-6.51-6.05-5.76,46.64-5.76,24.74,0,45.29.12,45.66.26s0,.69-1.92,1.94a56.32,56.32,0,0,0-6.54,5.5L109.2,36H70.07C31.49,36,30.93,36,30.12,35.14Z"/></svg>