<svg id="Layer_1" data-name="Layer 1" xmlns="http://www.w3.org/2000/svg" viewBox="0 0 569.63 164"><defs><style>.cls-1{fill:none;}.cls-2{fill:#fff;stroke:#000;stroke-miterlimit:10;}</style></defs><rect id="rect41953" class="cls-1" width="569.63" height="164" rx="2.55"/><path id="path41955" class="cls-2" d="M106.05,136.89c-14.64-5.38-16.88-36.36-4.94-68.86a152.14,152.14,0,0,1,12-23.64c8.17-12.21,17-19.71,25.22-21.42a14.92,14.92,0,0,1,4.21-.37c2.45.46,4.77,1.14,4.76,1.39a7,7,0,0,1-2,1.35c-13,7.23-26.5,27.69-33.56,51.05-5.24,17.36-6.33,36.52-2.69,47.58,1.67,5.08,4.16,9,7,11.08l1.67,1.21-2.16.64c-2.64.79-7.42.79-9.55,0Zm18.71-.25c-2.73-1-6-4.2-7.75-7.57a43.52,43.52,0,0,1-3.84-13.21c-.64-4.76-.32-17.19.61-23,3.52-22.2,14.36-45.91,27.11-59.28C148.1,26,156.8,21.7,162.66,22.79a23.07,23.07,0,0,1,3.36.88c1.15.45,1.18.52.45,1a57,57,0,0,0-16.84,15.45c-19.45,25.82-28.52,68-18.91,88a21.36,21.36,0,0,0,3.88,5.54,25.41,25.41,0,0,1,2.32,2.55s-1,.37-2.12.75a17.21,17.21,0,0,1-10-.21Zm21.52.36a17.22,17.22,0,0,1-9.06-9c-5.78-12.18-5-32.53,2-54.16,8.83-27.29,25.4-48.56,39.72-51a10.39,10.39,0,0,1,5.45.17,12.31,12.31,0,0,1,7,4.26c2.42,2.59,4.18,6.13,5.43,10.87,1.58,6,2.29,15.06,1.59,20.17l-.26,1.91H186.41l-.25-1.54C184.63,49,181.52,45,175.61,45c-9,0-21.21,15.79-26.06,33.86-3.14,11.87-3.24,23.39-.14,29.55,3.48,6.9,10.07,7.47,17.25,1.49l2.39-2h7.22a56,56,0,0,1,7.21.23c0,.41-2.12,3.94-4.67,7.79-6.63,10-14.32,17.21-21.64,20.35C154.49,137.44,148.32,137.84,146.28,137ZM428.4,100.74c-3.39-1.21-5.17-3.55-5.16-6.78,0-3.77-.06-3.71,4.76-3.71h4.25l-.05,1.5c-.07,1.9.84,2.61,3.34,2.6s3.78-.7,4.68-2.54c1.18-2.41.74-3-5.59-7.39-4.31-3-5.64-4.88-5.64-8,0-5.31,3.67-9.75,9.43-11.41a24.59,24.59,0,0,1,10-.22,7,7,0,0,1,5.25,6.72c0,3.15,0,3.13-4.82,3.13-3.83,0-4.28-.07-4-.67a2.22,2.22,0,0,0-.44-1.65c-.53-.8-1-1-2.7-1-2.46,0-4.08,1.27-4.08,3.2,0,1.44,1,2.41,6.07,5.84,4.53,3.06,5.85,4.89,5.85,8.09,0,5.52-3.61,10-9.79,12-3,1-8.87,1.15-11.35.26Zm-264.09-.54c.12-.4,2.09-7.58,4.38-15.94s4.45-16.19,4.78-17.38l.62-2.15h6c9.38,0,12.64.8,14.79,3.61.91,1.19,1.13,2,1.25,4.37a14.81,14.81,0,0,1-3,9.56A15.91,15.91,0,0,1,187.55,87c-.33.12,1.12,5.57,3.51,13.2.21.65-.18.72-4.3.72h-4.54l-.81-2.78c-.45-1.52-1.22-4.3-1.73-6.16l-.91-3.4h-3l-1.63,6.07-1.64,6.06-4.22.12c-3.9.11-4.21.06-4-.62Zm20-19.29a7.81,7.81,0,0,0,3.13-5.46,2.49,2.49,0,0,0-.87-2.69c-1-1-1.34-1.07-3.63-1l-2.53.16-1,3.91c-.59,2.15-1.21,4.44-1.37,5.09l-.3,1.19,2.68-.21a11.55,11.55,0,0,0,4-1Zm7.78,19.69c0-.17,4.42-8.26,9.81-18l9.8-17.68h9l.11,18,.11,18h-8.65V94.76h-8.64l-1.47,3.08-1.53,3.09H196.4c-2.32,0-4.22-.14-4.21-.31ZM212.9,83c.26-2.76.61-6,.77-7.19s.2-2.09.08-2-1.25,2.58-2.53,5.48-2.69,5.85-3.13,6.57c-1.31,2.15-1.12,2.4,1.77,2.26l2.57-.12Zm12.24,16.63c.15-.73,2.35-8.83,4.88-18L234.64,65H242c8.55,0,10.3.43,12.68,3.07,2.58,2.85,2.48,4.76-.78,16.25-2.05,7.2-2.86,9-5.14,11.48-3.57,3.87-7.93,5.15-17.61,5.16h-6.31ZM241,93.17c1.93-1,2.91-3.11,5-10.54,2.64-9.59,2.45-10.52-2.29-10.82a7.06,7.06,0,0,0-2.67.09c0,.14-1.3,4.94-2.88,10.67s-2.88,10.63-2.88,10.89c0,.79,4.14.58,5.76-.29Zm14.8,7.45c0-.17,2.2-8.26,4.87-18l4.86-17.68,10.55-.11c12.07-.12,11-.54,9.78,4l-.75,2.67-6.58.11-6.58.12-.89,3.38c-.48,1.86-.88,3.52-.88,3.69s2.62.31,5.81.31h5.8l-.28,1.13c-.15.62-.55,2.1-.89,3.29L280,85.69H268.22l-.45,1.74c-.25,1-.72,2.66-1,3.78a20.84,20.84,0,0,0-.58,2.36c0,.19,3,.34,6.77.34,5.23,0,6.73.12,6.6.51s-.56,1.86-1,3.5l-.87,3h-10.9c-6,0-10.88-.13-10.88-.3Zm28-.21c0-.93,9.5-35,9.86-35.41.19-.19,3.74-.28,7.89-.18,6.42.16,7.81.31,9.38,1,3.74,1.68,5.34,4.78,4.74,9.17-.58,4.22-4.06,9.56-7.39,11.35a3.93,3.93,0,0,0-1.46,1.14c0,.14.84,3.1,1.85,6.45s1.85,6.29,1.85,6.54-1.49.45-4.45.45h-4.45L300,94.85l-1.65-6.06h-3.14l-1.64,6.06-1.64,6.07h-4.05c-3,0-4-.14-4-.52ZM303.88,80.9a6.62,6.62,0,0,0,2.84-4.56c.47-3.52-.62-4.61-4.61-4.61h-2.23l-.47,1.75c-.25,1-.81,3-1.25,4.62a25.32,25.32,0,0,0-.78,3.45C297.38,82.44,302.5,81.93,303.88,80.9Zm11.35,18.69c.15-.73,2.34-8.83,4.88-18l4.61-16.65h7.4c8.32,0,9.72.32,12.17,2.54a7.34,7.34,0,0,1,2.43,5.66c0,1.84-4.07,16.55-5.22,18.85a16.11,16.11,0,0,1-6.27,6.59c-3.11,1.7-6.78,2.3-14,2.31H315Zm15.69-6.31c2.06-1,2.94-2.76,5-10.15,2.82-10.14,2.65-11-2.13-11.32a7.11,7.11,0,0,0-2.68.09c0,.14-1.29,4.94-2.88,10.67s-2.87,10.63-2.87,10.89c0,.72,3.95.59,5.57-.18Zm15,7.34c0-.17,2.19-8.26,4.86-18l4.86-17.68,4.22-.12c3.88-.1,4.19-.06,4,.62-.12.4-2.09,7.58-4.38,16S355,97.62,354.7,98.81l-.62,2.16H350c-2.25,0-4.08-.14-4.08-.31Zm16-1,4.91-17.85c2.49-9.08,4.54-16.62,4.54-16.75s4.81-.24,10.69-.24,10.69.11,10.69.25-.4,1.72-.89,3.5L391,71.77H378l-.66,2.36c-.36,1.3-.83,2.9-1,3.56A12.56,12.56,0,0,0,376,79a55.39,55.39,0,0,0,5.76.15c4.32,0,5.75.12,5.76.51a28.17,28.17,0,0,1-.71,3.28L386,85.72l-6,.12L374,86l-1,3.86-1.08,3.9,6.77.12,6.78.11-.26.91c-.14.51-.55,2.08-.92,3.49l-.66,2.57h-22Zm27.54,1.17c0-.16,8.08-29.65,9.28-33.86l.61-2.15h4.1a29.53,29.53,0,0,1,4.1.14c0,.08.76,3.36,1.68,7.3s2,9,2.4,11.26c.68,3.84.75,4,1,2.47,1.07-6.12,2.47-12.58,3.58-16.55l1.29-4.62h4.06c2.23,0,4.06.13,4.05.3s-2.2,8.27-4.88,18l-4.87,17.68-4.17.12a26.26,26.26,0,0,1-4.16,0c0-.09-.73-3.38-1.62-7.31s-1.84-8.72-2.11-10.64a27.13,27.13,0,0,0-.76-4c-.16-.29-.51.91-.8,2.67-.46,2.84-3,13.74-4.18,17.9l-.44,1.54h-4.09a25.4,25.4,0,0,1-4.09-.17Zm67.84-.15c0-.26,6.94-25.79,7.65-28.16.2-.65-.17-.71-3.9-.71h-4.12l.36-1.14c.2-.62.66-2.19,1-3.49l.66-2.36h12.32c13.38,0,12.73-.13,11.94,2.3-.22.65-.6,2-.84,2.94l-.45,1.75h-8.17l-.61,2.15c-.34,1.19-2.11,7.61-3.94,14.26s-3.42,12.25-3.53,12.44c-.27.43-8.39.45-8.39,0ZM71.41,87.34C70,86.77,69.64,85.62,69.64,82c0-3.19.4-4.78,1.39-5.44.6-.4,17.11-.4,17.1,0,0,.17-.62,2.71-1.36,5.65l-1.36,5.37-6.56.08A46.28,46.28,0,0,1,71.41,87.34ZM488.78,87c.12-.39,1.25-4.88,2.52-10s2.48-9.94,2.7-10.79l.41-1.54h25.52c20.24,0,25.48.1,25.33.51s-1.44,5.46-3,11.51l-2.81,11H514c-24.05,0-25.44,0-25.24-.72Zm13.44-4.23c.85-.45,1.09-2.22.36-2.67s-2.39.18-2.87,1.07c-.87,1.57.7,2.57,2.47,1.62Zm10.17-.56c2-1,3-2.57,4-6,1.25-4.27,1.24-5.09,0-6.36-1-1-1.27-1-4.41-.91l-3.39.12-1.75,6.38c-1,3.5-1.75,6.6-1.76,6.88,0,.74,5.87.69,7.32-.06Zm-3.21-2.58c0-1.29,2.28-8.36,2.7-8.36,1.09,0,1.82.53,1.82,1.33,0,1.49-1.29,5.86-2,6.59s-2.52,1-2.52.47Zm16.57,2.85a8.65,8.65,0,0,0,.44-1.42c.26-1.11.26-1.11-2.34-1.24l-2.6-.12.35-1.33c.34-1.31.4-1.34,2.61-1.34,2,0,2.3-.1,2.66-1,.64-1.7.52-1.83-1.87-1.83s-2.27,0-2-1.13c.41-1.76.41-1.76,3-1.76,2.26,0,2.49-.08,2.86-1a8.83,8.83,0,0,0,.4-1.23,26,26,0,0,0-4.32-.18,23.13,23.13,0,0,0-4.32.2c0,.19-3,11.33-3.54,13.06-.19.65.18.72,4.11.72a17.82,17.82,0,0,0,4.49-.31ZM56,69.27c-.72-.72-.82-1.37-.82-5.08s.11-4.36.75-4.93,2.66-.68,19.89-.68H95l-2.2,5.24a56.5,56.5,0,0,0-2.21,5.76c0,.4-3.65.51-16.86.51C57.4,70.09,56.82,70.09,56,69.27Zm154.7-8.73c-1.4-.67-1.26-2.92.28-4.46a3.48,3.48,0,0,1,3.07-1.2c1.56,0,2,.18,2.56,1s.65,1.15,0,2.49a4.54,4.54,0,0,1-5.92,2.12Zm9.46-.11c-1.07-.77-1.17-1.83-.34-3.44,1-2,4.76-2.87,6.17-1.47,2.55,2.53-2.83,7.06-5.8,4.91ZM40.41,51.59c-.71-.71-.82-1.37-.82-4.94,0-6.44-4.05-5.75,33.71-5.75h32.06l-2.47,3.76c-1.36,2.07-3,4.66-3.59,5.76l-1.12,2H69.7c-27.93,0-28.49,0-29.3-.82ZM30.12,35.14c-.71-.71-.82-1.37-.82-4.93,0-6.51-6.05-5.76,46.64-5.76,24.74,0,45.29.12,45.66.26s0,.69-1.92,1.94a56.32,56.32,0,0,0-6.54,5.5L109.2,36H70.07C31.49,36,30.93,36,30.12,35.14Z"/></svg>